<svg xmlns="http://www.w3.org/2000/svg" width="77.222" height="24.439" viewBox="0 0 77.222 24.439">
  <g id="btn_contact" transform="translate(-39.5 -1035.5)">
    <path id="パス_989" data-name="パス 989" d="M-20.537-1.02a1.287,1.287,0,0,0,.885-.311,1.061,1.061,0,0,0,.375-.768h1.342a2.091,2.091,0,0,1-.369,1.1,2.421,2.421,0,0,1-.937.812,2.794,2.794,0,0,1-1.277.3,2.7,2.7,0,0,1-2.109-.861,3.416,3.416,0,0,1-.779-2.379V-3.27a3.359,3.359,0,0,1,.773-2.317,2.678,2.678,0,0,1,2.109-.87,2.6,2.6,0,0,1,1.843.659,2.361,2.361,0,0,1,.747,1.731h-1.342a1.3,1.3,0,0,0-.372-.9,1.2,1.2,0,0,0-.888-.352,1.253,1.253,0,0,0-1.066.5,2.556,2.556,0,0,0-.381,1.521v.229a2.6,2.6,0,0,0,.372,1.538A1.252,1.252,0,0,0-20.537-1.02Zm4.61-2.209a3.738,3.738,0,0,1,.369-1.679A2.7,2.7,0,0,1-14.52-6.056a2.922,2.922,0,0,1,1.535-.4,2.769,2.769,0,0,1,2.083.826,3.249,3.249,0,0,1,.864,2.191l.006.334a3.772,3.772,0,0,1-.36,1.676A2.664,2.664,0,0,1-11.423-.287a2.944,2.944,0,0,1-1.55.4,2.75,2.75,0,0,1-2.147-.894,3.422,3.422,0,0,1-.806-2.382Zm1.424.123a2.555,2.555,0,0,0,.4,1.532,1.314,1.314,0,0,0,1.125.554,1.3,1.3,0,0,0,1.122-.562,2.822,2.822,0,0,0,.4-1.646,2.522,2.522,0,0,0-.413-1.523,1.319,1.319,0,0,0-1.122-.562,1.307,1.307,0,0,0-1.107.554A2.768,2.768,0,0,0-14.5-3.105Zm8.2-3.234.041.732a2.28,2.28,0,0,1,1.846-.85q1.98,0,2.016,2.268V0H-3.828V-4.107A1.306,1.306,0,0,0-4.089-5a1.1,1.1,0,0,0-.853-.29,1.372,1.372,0,0,0-1.283.779V0H-7.648V-6.34ZM2.03-7.881V-6.34H3.149v1.055H2.03v3.539a.779.779,0,0,0,.144.524.666.666,0,0,0,.513.161,2.193,2.193,0,0,0,.5-.059v1.1a3.507,3.507,0,0,1-.937.135Q.606.117.606-1.693V-5.285H-.437V-6.34H.606V-7.881ZM9.224,0A2.2,2.2,0,0,1,9.06-.592,2.216,2.216,0,0,1,7.4.117,2.237,2.237,0,0,1,5.838-.428a1.743,1.743,0,0,1-.6-1.348,1.8,1.8,0,0,1,.753-1.556A3.649,3.649,0,0,1,8.14-3.873h.873v-.416a1.11,1.11,0,0,0-.275-.788,1.092,1.092,0,0,0-.838-.3,1.254,1.254,0,0,0-.8.243.753.753,0,0,0-.311.618H5.369a1.58,1.58,0,0,1,.346-.976,2.3,2.3,0,0,1,.94-.712,3.3,3.3,0,0,1,1.327-.258,2.66,2.66,0,0,1,1.775.56,2,2,0,0,1,.68,1.573v2.859A3.241,3.241,0,0,0,10.678-.1V0ZM7.66-1.025a1.62,1.62,0,0,0,.794-.205,1.37,1.37,0,0,0,.56-.551v-1.2H8.246A2.1,2.1,0,0,0,7.056-2.7a.892.892,0,0,0-.4.779.832.832,0,0,0,.272.653A1.055,1.055,0,0,0,7.66-1.025Zm8.073.006a1.287,1.287,0,0,0,.885-.311,1.061,1.061,0,0,0,.375-.768h1.342a2.091,2.091,0,0,1-.369,1.1,2.421,2.421,0,0,1-.937.812,2.794,2.794,0,0,1-1.277.3,2.7,2.7,0,0,1-2.109-.861,3.416,3.416,0,0,1-.779-2.379V-3.27a3.359,3.359,0,0,1,.773-2.317,2.678,2.678,0,0,1,2.109-.87,2.6,2.6,0,0,1,1.843.659,2.361,2.361,0,0,1,.747,1.731H16.993a1.3,1.3,0,0,0-.372-.9,1.2,1.2,0,0,0-.888-.352,1.253,1.253,0,0,0-1.066.5,2.556,2.556,0,0,0-.381,1.521v.229a2.6,2.6,0,0,0,.372,1.538A1.252,1.252,0,0,0,15.733-1.02Zm6.661-6.861V-6.34h1.119v1.055H22.394v3.539a.779.779,0,0,0,.144.524.666.666,0,0,0,.513.161,2.193,2.193,0,0,0,.5-.059v1.1a3.507,3.507,0,0,1-.937.135q-1.641,0-1.641-1.811V-5.285H19.927V-6.34H20.97V-7.881Z" transform="translate(78 1052)" fill="#474747"/>
    <g id="btn_contact-2" data-name="btn_contact" transform="translate(5220.75 12654.75)">
      <path id="パス_944" data-name="パス 944" d="M55.944,23.689H11.969a11.719,11.719,0,0,1,0-23.439" transform="translate(-5181 -11619)" fill="none" stroke="#474747" stroke-linecap="round" stroke-linejoin="round" stroke-width="1"/>
      <path id="パス_945" data-name="パス 945" d="M20.583.25H64.752a11.719,11.719,0,1,1,0,23.439" transform="translate(-5181 -11619)" fill="none" stroke="#474747" stroke-linecap="round" stroke-linejoin="round" stroke-width="1"/>
    </g>
  </g>
</svg>
