<svg xmlns="http://www.w3.org/2000/svg" width="102.5" height="102.5" viewBox="0 0 102.5 102.5">
  <g id="icon_drag" transform="translate(1 1)">
    <g id="グループ_759" data-name="グループ 759" transform="translate(33.918 42.832)">
      <path id="パス_946" data-name="パス 946" d="M15.788,27.365a4.854,4.854,0,0,1,.88-3.036,2.807,2.807,0,0,1,2.351-1.144,2.666,2.666,0,0,1,2.1.908V19.9h1.837V31.516H21.294l-.091-.845a2.712,2.712,0,0,1-2.2,1,2.791,2.791,0,0,1-2.325-1.157,5.031,5.031,0,0,1-.891-3.146m1.84.16a3.378,3.378,0,0,0,.481,1.946,1.551,1.551,0,0,0,1.365.7,1.739,1.739,0,0,0,1.647-1.005V25.672a1.708,1.708,0,0,0-1.634-.984,1.57,1.57,0,0,0-1.376.709,3.788,3.788,0,0,0-.483,2.128" transform="translate(-15.788 -19.902)" fill="#fff"/>
      <path id="パス_947" data-name="パス 947" d="M24.8,23.247a4.452,4.452,0,0,0-.75-.061,1.691,1.691,0,0,0-1.7.966v5.6H20.516V21.568h1.755l.048.914a2.066,2.066,0,0,1,1.842-1.066,1.754,1.754,0,0,1,.652.106Z" transform="translate(-10.271 -18.135)" fill="#fff"/>
      <path id="パス_948" data-name="パス 948" d="M28.451,29.75a2.861,2.861,0,0,1-.212-.765,2.861,2.861,0,0,1-2.147.917,2.891,2.891,0,0,1-2.011-.7,2.245,2.245,0,0,1-.778-1.738,2.322,2.322,0,0,1,.971-2.009,4.709,4.709,0,0,1,2.778-.7h1.127v-.535a1.44,1.44,0,0,0-.355-1.018,1.416,1.416,0,0,0-1.081-.381,1.6,1.6,0,0,0-1.025.314.963.963,0,0,0-.405.8H23.476a2.018,2.018,0,0,1,.449-1.259,2.954,2.954,0,0,1,1.209-.919,4.251,4.251,0,0,1,1.714-.334,3.429,3.429,0,0,1,2.292.724,2.578,2.578,0,0,1,.875,2.03v3.688a4.17,4.17,0,0,0,.312,1.764v.128Zm-2.019-1.324a2.1,2.1,0,0,0,1.025-.264,1.755,1.755,0,0,0,.722-.711V25.908H27.19a2.7,2.7,0,0,0-1.534.355,1.144,1.144,0,0,0-.518,1.005,1.074,1.074,0,0,0,.353.843,1.355,1.355,0,0,0,.94.314" transform="translate(-7.019 -18.135)" fill="#fff"/>
      <path id="パス_949" data-name="パス 949" d="M27.534,25.6a4.79,4.79,0,0,1,.895-3.042,2.882,2.882,0,0,1,2.379-1.138,2.693,2.693,0,0,1,2.2.975l.082-.826h1.655V29.5a3.294,3.294,0,0,1-1,2.54,3.808,3.808,0,0,1-2.7.932,4.374,4.374,0,0,1-1.757-.375,3.121,3.121,0,0,1-1.3-.979l.871-1.1a2.625,2.625,0,0,0,2.087,1.005,2.033,2.033,0,0,0,1.445-.5,1.9,1.9,0,0,0,.529-1.456v-.55a2.71,2.71,0,0,1-2.119.884,2.868,2.868,0,0,1-2.347-1.142,4.942,4.942,0,0,1-.912-3.161m1.831.16a3.308,3.308,0,0,0,.5,1.939,1.628,1.628,0,0,0,1.4.706,1.766,1.766,0,0,0,1.649-.953v-3.6a1.743,1.743,0,0,0-1.634-.932,1.636,1.636,0,0,0-1.413.717,3.71,3.71,0,0,0-.5,2.119" transform="translate(-2.083 -18.134)" fill="#fff"/>
    </g>
    <g id="グループ_760" data-name="グループ 760">
      <path id="パス_950" data-name="パス 950" d="M7.236,34.073.25,27.087,7.236,20.1" transform="translate(0 23.163)" fill="none" stroke="#fff" stroke-linecap="round" stroke-linejoin="round" stroke-width="2.5"/>
      <line id="線_84" data-name="線 84" x1="23.178" transform="translate(0.25 50.25)" fill="none" stroke="#fff" stroke-linecap="round" stroke-linejoin="round" stroke-width="2.5"/>
      <path id="パス_951" data-name="パス 951" d="M20.1,7.236,27.087.25l6.986,6.986" transform="translate(23.163)" fill="none" stroke="#fff" stroke-linecap="round" stroke-linejoin="round" stroke-width="2.5"/>
      <line id="線_85" data-name="線 85" y1="27.512" transform="translate(50.25 0.25)" fill="none" stroke="#fff" stroke-linecap="round" stroke-linejoin="round" stroke-width="2.5"/>
      <path id="パス_952" data-name="パス 952" d="M43.177,20.1l6.986,6.986-6.986,6.986" transform="translate(50.087 23.163)" fill="none" stroke="#fff" stroke-linecap="round" stroke-linejoin="round" stroke-width="2.5"/>
      <line id="線_86" data-name="線 86" x2="23.178" transform="translate(77.071 50.25)" fill="none" stroke="#fff" stroke-linecap="round" stroke-linejoin="round" stroke-width="2.5"/>
      <path id="パス_953" data-name="パス 953" d="M34.073,43.177l-6.986,6.986L20.1,43.177" transform="translate(23.163 50.088)" fill="none" stroke="#fff" stroke-linecap="round" stroke-linejoin="round" stroke-width="2.5"/>
      <line id="線_87" data-name="線 87" y2="27.512" transform="translate(50.25 72.736)" fill="none" stroke="#fff" stroke-linecap="round" stroke-linejoin="round" stroke-width="2.5"/>
    </g>
  </g>
</svg>
