<?xml version="1.0" encoding="UTF-8"?><svg id="a" xmlns="http://www.w3.org/2000/svg" viewBox="0 0 661.34 276.19"><g><path d="M28.65,149.58c.3,.47,.5,.91,.98,1.22,.56,.35,1.08,.87,1.78,1.26,.59,.33,1.27,.6,1.97,.95,.62,.31,1.09,1.02,1.8,1.33,.63,.29,1.4,.37,2.11,.66,.59,.24,1.34,.15,2.01,.32,.08,.03,.16,.07,.24,.1,.02,0,.05,0,.08,.01,.6,.29,1.09,.95,1.76,1.17,.66,.22,1.5-.03,2.21,.17,.03,.01,.06,.03,.09,.04,.01,0,.03,0,.04,0,.63,.24,1.17,.86,1.86,1.05,.69,.19,1.38,.43,2.11,.6,.69,.17,1.47,.06,2.2,.22,.7,.15,1.46,.07,2.19,.22,.7,.14,1.4,.36,2.13,.48,.71,.12,1.35,.71,2.09,.83,.71,.11,1.48-.08,2.22,.02,.71,.1,1.48-.13,2.21-.05,.71,.08,1.37,.85,2.11,.92,.72,.07,1.47-.1,2.21-.04,.72,.06,1.48-.41,2.22-.36,.72,.05,1.43,.34,2.17,.38,.72,.04,1.44,.39,2.18,.42,.72,.03,1.46-.27,2.2-.26,.72,.02,1.45-.2,2.19-.2,.7,0,1.4,.61,2.1,.61,.75,0,1.49-.08,2.23-.08,.75,0,1.48-.57,2.22-.58,.74-.01,1.5,.65,2.24,.63,.75-.02,1.47-.59,2.21-.61,.75-.02,1.5,.37,2.24,.34,.74-.03,1.47-.47,2.2-.5,.75-.03,1.51,.31,2.24,.27,.75-.04,1.49-.05,2.23-.09,.69-.04,1.34-.48,2.01-.59,.06,0,.11,0,.17,0,.1,0,.2-.03,.3-.06,.64-.05,1.28-.12,1.92-.16,.75-.05,1.52,.35,2.25,.29,.75-.06,1.47-.36,2.2-.43,.75-.06,1.49-.02,2.23-.09,.75-.07,1.47-.28,2.2-.35,.75-.07,1.53,.31,2.26,.24,.75-.08,1.46-.44,2.18-.52,.75-.08,1.46-.39,2.19-.48,.75-.09,1.55,.36,2.27,.27,.75-.09,1.48-.28,2.2-.38,.76-.1,1.49-.24,2.2-.34,.76-.1,1.52-.03,2.23-.13,.76-.11,1.5-.25,2.2-.35,.77-.11,1.43-.76,2.12-.86,.78-.12,1.54-.08,2.22-.19,.81-.13,1.59,.01,2.24-.09,1.04-.17,2.02-.87,2.62-1.73,.6-.86,.44-1.94,.24-2.97-.18-.96,.4-1.07,.22-2.03-.18-.96-.29-.94-.47-1.9-.18-.96-.31-.93-.49-1.89-.18-.96-.54-.89-.72-1.85-.17-.92-.17-2-.84-2.57-.68-.56-1.74-.27-2.68-.27-.26,0-.54-.44-.79-.39-.6,.12-1.25,.62-2.09,.79-.66,.13-1.42,.09-2.21,.24-.68,.13-1.48-.13-2.25,0-.69,.13-1.42,.23-2.18,.36-.66,.12-1.24,.82-1.93,1.01-.07,0-.14,.02-.21,.03-.01,0-.03,0-.04,.01-.68,.06-1.44-.27-2.14-.15-.71,.12-1.41,.42-2.16,.54-.59,.09-1.15,.4-1.75,.58-.17,0-.35,.01-.52,.04-.16,.02-.33,.06-.49,.1-.54,0-1.09-.06-1.62,.02-.72,.1-1.52-.26-2.26-.16-.72,.1-1.43,.38-2.17,.47-.72,.1-1.38,.76-2.12,.85-.73,.09-1.53-.43-2.27-.35-.73,.09-1.41,.6-2.15,.68-.73,.08-1.47,.12-2.21,.19-.73,.08-1.48,.05-2.22,.12-.73,.07-1.5-.19-2.24-.13-.73,.06-1.45,.35-2.19,.41-.74,.06-1.45,.36-2.19,.41-.74,.05-1.49-.15-2.23-.1-.74,.04-1.46,.43-2.19,.47-.74,.04-1.5-.41-2.23-.38-.74,.03-1.46,.61-2.2,.63-.74,.02-1.49-.3-2.22-.29-.74,.01-1.48-.17-2.21-.17-.77,0-1.53,.18-2.28,.17-.77-.01-1.51-.45-2.26-.47-.77-.03-1.53,.28-2.28,.24-.77-.04-1.55,.21-2.29,.16-.77-.06-1.47-.69-2.21-.76-.77-.08-1.58,.37-2.31,.28-.75-.09-1.48-.28-2.2-.39-.75-.12-1.43-.51-2.15-.65-.74-.14-1.5-.11-2.21-.27-.74-.17-1.43-.46-2.13-.65-.73-.19-1.44-.38-2.14-.59-.72-.22-1.46-.33-2.15-.57-.71-.26-1.41-.51-2.08-.79-.69-.29-1.32-.7-1.98-1.02-.67-.33-1.13-1.02-1.77-1.39-.65-.37-1.64-.17-2.25-.57-.62-.41-1.08-1.07-1.66-1.52-.7-.53-1.52-.6-2.39-.6-1.09,0-2.25,.12-2.98,.92-.68,.75-.42,.98-1.1,1.72-.68,.75-.83,.61-1.5,1.36-.68,.75-.63,.79-1.31,1.53-.68,.74-.98,.47-1.65,1.21-.39,.43-.62,1.1-.79,1.64-.17,.53-.36,1.23-.29,1.8,.08,.57,.96,.85,1.26,1.32Z"/><path d="M156.76,250.49c-.46-.94-.61-.86-1.07-1.8-.46-.93-.18-1.07-.63-2.01-.46-.93-1.02-.66-1.48-1.59-.32-.66-.77-1.03-1.38-1.41-.08-.05-.15-.09-.23-.14-.06-.04-.12-.08-.18-.11-.45-.26-.9-.45-1.46-.45-.49,0-1.02-.2-1.48-.02-.67,.27-1.25,.77-1.93,1.04-.68,.26-1.33,.6-2.01,.85-.68,.26-1.45,.29-2.13,.54-.68,.25-1.31,.66-1.99,.91-.69,.24-1.4,.39-2.09,.63-.69,.23-1.46,.22-2.15,.45-.69,.23-1.32,.64-2.02,.86-.69,.22-1.3,.72-2,.94-.69,.21-1.56-.14-2.26,.06-.7,.21-1.38,.46-2.08,.66-.7,.2-1.27,.87-1.97,1.06-.7,.19-1.53-.1-2.24,.09-.7,.19-1.33,.65-2.04,.83-.71,.18-1.48,.07-2.19,.24-.71,.17-1.33,.7-2.04,.87-.71,.17-1.45,.2-2.16,.35-.67,.15-1.29,.58-1.96,.76-.13,.01-.27,.04-.4,.06-.64,0-1.37-.4-1.98-.27-.71,.15-1.33,.77-2.04,.91-.71,.14-1.49-.05-2.21,.08-.72,.13-1.39,.51-2.1,.64-.72,.13-1.5-.15-2.22-.03-.72,.12-1.37,.66-2.08,.77-.72,.11-1.44,.23-2.16,.33-.72,.1-1.47,0-2.19,.09-.72,.1-1.39,.64-2.11,.73-.72,.09-1.53-.51-2.25-.43-.72,.08-1.39,.65-2.11,.72-.73,.07-1.47-.04-2.19,.03-.73,.07-1.44,.21-2.17,.26-.73,.06-1.44,.34-2.16,.38-.73,.05-1.48-.29-2.2-.25-.73,.04-1.44,.36-2.17,.39-.73,.03-1.46-.09-2.19-.07-.73,.02-1.46-.35-2.19-.34-.73,.01-1.45,.78-2.18,.78s-1.43-.2-2.14-.21c-.72-.01-1.42-.37-2.13-.39-.72-.02-1.43,.07-2.13,.04-.72-.03-1.41-.37-2.11-.41-.71-.04-1.46,.41-2.16,.36-.71-.05-1.39-.49-2.09-.56-.71-.07-1.41-.19-2.11-.27-.71-.08-1.48,.38-2.18,.29-.71-.09-1.41-.23-2.11-.33-.71-.11-1.35-.57-2.05-.69-.71-.12-1.36-.47-2.05-.6-.7-.14-1.41-.18-2.1-.33-.7-.15-1.46-.02-2.14-.19-.7-.17-1.4-.3-2.08-.49-.69-.19-1.25-.81-1.93-1.01-.73-.22-1.47-.35-2.17-.58-.73-.24-1.64,.08-2.33-.18-.72-.26-1.21-1.08-1.89-1.36-.71-.29-1.61-.11-2.28-.41-.7-.32-1.25-.91-1.91-1.24-.68-.35-1.21-.94-1.84-1.31-.66-.39-1.3-.75-1.91-1.16-.64-.43-1.55-.45-2.13-.9-.61-.47-1.07-1.11-1.61-1.6-.56-.52-1-1.15-1.49-1.7-.51-.57-.81-1.27-1.24-1.87-.45-.62-.97-1.15-1.33-1.8-.37-.66-.84-1.27-1.12-1.96-.28-.7-.67-1.38-.86-2.11-.19-.73,.07-1.54-.02-2.27-.09-.74-.22-1.47-.22-2.21,0-.75,.14-1.47,.22-2.21,.08-.74,.1-1.48,.26-2.2,.16-.73,.47-1.4,.69-2.11,.23-.71,.49-1.39,.78-2.07,.29-.69,.75-1.27,1.09-1.93,.34-.67,.57-1.37,.95-2,.4-.64,.54-1.44,.96-2.03,.44-.62,1.06-1.09,1.52-1.64,.49-.59,.74-1.38,1.24-1.89,.48-.49,1.03-.91,1.19-1.54,.16-.65,.43-1.43,.25-2.08-.17-.63-.94-1.02-1.42-1.51-.74-.75-.63-.85-1.37-1.6-.74-.75-.51-.97-1.25-1.71-.74-.75-.78-.7-1.52-1.44-.73-.74-.91-.57-1.64-1.32-.74-.75-1.72-1.35-2.77-1.35s-2.11,.65-2.83,1.43c-.5,.54-.88,1.18-1.35,1.73-.48,.56-1.15,.95-1.6,1.51-.46,.57-.54,1.43-.96,2.01-.44,.59-.87,1.16-1.27,1.76-.41,.61-1.11,1.02-1.49,1.63-.39,.63-.8,1.23-1.15,1.86-.36,.64-.47,1.4-.79,2.05-.33,.66-.96,1.17-1.24,1.83-.29,.68-.54,1.37-.79,2.05-.25,.69-.57,1.37-.78,2.05-.21,.7-.38,1.43-.54,2.13-.17,.71-.44,1.42-.56,2.13-.12,.72,.38,1.53,.31,2.25-.07,.73-.57,1.42-.59,2.15-.02,.73,.36,1.46,.39,2.18,.03,.73-.15,1.47-.07,2.19,.09,.72,.24,1.44,.38,2.15,.14,.71,.66,1.33,.85,2.03,.19,.7,.33,1.39,.58,2.08,.24,.68,.12,1.51,.41,2.18,.29,.66,.88,1.18,1.22,1.84,.33,.64,.58,1.33,.96,1.96,.37,.62,1.01,1.06,1.43,1.66,.41,.59,.3,1.58,.75,2.16,.44,.57,1.44,.68,1.93,1.24,.47,.54,.56,1.44,1.07,1.96,.5,.51,1.34,.67,1.89,1.16,.53,.48,.69,1.4,1.26,1.86,.55,.45,1.5,.41,2.09,.84,.58,.42,1.1,.91,1.71,1.32,.59,.4,.98,1.14,1.6,1.53,.61,.37,1.48,.31,2.12,.67,.62,.35,1.16,.86,1.81,1.19,.64,.33,1.26,.7,1.92,1.02,.65,.31,1.42,.34,2.09,.63,.66,.29,1.15,.97,1.83,1.25,.66,.27,1.52,.07,2.2,.32,.67,.25,1.19,.94,1.88,1.18,.68,.23,1.49,.07,2.19,.29,.68,.22,1.34,.53,2.04,.74,.69,.2,1.37,.45,2.07,.64,.69,.19,1.41,.28,2.12,.46,.7,.17,1.26,.95,1.97,1.11,.7,.16,1.51-.16,2.23,0,.7,.15,1.45,.11,2.16,.25,.71,.14,1.38,.47,2.09,.6,.71,.12,1.45,.05,2.17,.16,.71,.11,1.36,.64,2.08,.74,.71,.1,1.49-.25,2.21-.16,.71,.09,1.4,.4,2.13,.48,.71,.08,1.43,.2,2.15,.27,.72,.07,1.46-.19,2.19-.13,.72,.06,1.43,.13,2.16,.18,.72,.05,1.41,.6,2.13,.64,.72,.04,1.45-.03,2.18,0,.72,.03,1.43,.37,2.16,.4,.72,.02,1.45-.08,2.18-.06,.72,.02,1.45-.07,2.18-.06,.72,0,1.45-.11,2.18-.11,0,0,0-.12,0-.12,.76,0,1.53-.06,2.3-.07,.76,0,1.53-.08,2.3-.1,.76-.02,1.53-.04,2.3-.07,.76-.03,1.56,.55,2.33,.51,.77-.03,1.53-.25,2.3-.3,.77-.04,1.54,.05,2.31,0,.74-.05,1.43-.76,2.16-.82,.74-.06,1.52,.45,2.25,.39,.74-.06,1.46-.26,2.19-.33,.74-.07,1.49,.05,2.22-.02,.74-.08,1.43-.57,2.15-.65,.74-.08,1.49,.04,2.22-.04,.74-.09,1.46-.23,2.19-.33,.74-.1,1.41-.57,2.14-.67,.74-.1,1.51,.12,2.23,0,.73-.11,1.45-.33,2.17-.45,.73-.12,1.46-.21,2.18-.33,.73-.13,1.42-.44,2.14-.58,.73-.13,1.52,.09,2.24-.05,.73-.14,1.46-.25,2.17-.4,.73-.15,1.47-.23,2.18-.38,.73-.16,1.49-.14,2.2-.3,.73-.16,1.39-.57,2.1-.74,.73-.17,1.36-.7,2.06-.87,.73-.18,1.53,.01,2.24-.17,.73-.19,1.34-.74,2.04-.93,.72-.2,1.49-.2,2.18-.4,.72-.2,1.38-.58,2.07-.79,.72-.21,1.43-.41,2.12-.62,.72-.22,1.44-.37,2.13-.59,.72-.23,1.56-.05,2.23-.28,.72-.24,1.25-.98,1.92-1.22,.72-.25,1.42-.48,2.08-.72,.73-.27,1.57-.13,2.22-.38,.74-.28,1.34-.77,1.97-1.03,.76-.3,1.35-.8,1.95-1.05,.99-.42,1.51-1.09,1.88-2.1,.37-1,.47-1.91,0-2.86-.46-.94-.08-1.12-.54-2.06Z"/><path d="M281.52,149.6c.3,.47,.37,1.13,.86,1.43,.56,.35,1.1,.88,1.79,1.27,.59,.33,1.44,.3,2.13,.64,.62,.31,1.12,.96,1.82,1.27,.63,.29,1.43,.27,2.14,.56,.65,.26,1.38,.38,2.09,.65,.66,.24,1.28,.67,1.99,.91,.67,.22,1.35,.49,2.07,.71,.68,.2,1.3,.69,2.02,.89,.69,.19,1.39,.4,2.12,.58,.69,.17,1.53-.21,2.26-.05,.7,.15,1.39,.4,2.12,.54,.7,.14,1.45,.08,2.18,.21,.71,.12,1.39,.46,2.12,.57,.71,.11,1.45,.03,2.19,.13,.71,.1,1.37,.74,2.11,.83,.71,.08,1.45,.16,2.19,.23,.72,.07,1.46,.03,2.2,.09,.72,.06,1.47-.18,2.21-.13,.72,.05,1.45-.05,2.19-.01,.72,.04,1.42,.76,2.16,.78,.72,.03,1.47-.68,2.21-.66,.72,.02,1.44,.67,2.18,.67,.7,0,1.4-.19,2.1-.19,.75,0,1.49-.49,2.23-.49,.75,0,1.5,.68,2.24,.67,.74-.01,1.49-.12,2.23-.14,.75-.02,1.49-.15,2.23-.17,.75-.02,1.48-.29,2.22-.32,.74-.03,1.47-.26,2.21-.29,.75-.03,1.51,.43,2.25,.39,.75-.04,1.48-.24,2.22-.29,.75-.04,1.5,.06,2.23,.02,.75-.05,1.5,.01,2.23-.04,.75-.05,1.46-.5,2.19-.55,.75-.06,1.48-.2,2.21-.27,.45-.04,.89-.15,1.33-.25,.29-.01,.58-.03,.87-.05,.17-.02,.33-.07,.49-.15,.57-.05,1.15-.11,1.71-.16,.75-.07,1.5,.02,2.23-.06,.75-.08,1.54,.38,2.27,.3,.75-.08,1.46-.38,2.19-.47,.75-.09,1.52,.04,2.24-.05,.75-.09,1.44-.57,2.16-.66,.76-.1,1.51-.07,2.22-.17,.76-.1,1.53,.03,2.24-.07,.76-.11,1.48-.34,2.19-.45,.77-.11,1.43-.74,2.12-.84,.78-.12,1.59,.25,2.27,.14,.81-.13,1.47-.67,2.13-.78,1.04-.17,1.86-.53,2.46-1.39,.6-.86,.58-1.75,.39-2.79-.18-.96,.17-1.02-.01-1.98-.18-.96-.33-.93-.51-1.89-.18-.96-.13-.97-.31-1.92-.18-.96-.17-.96-.35-1.92-.17-.92-.31-2.01-.98-2.58-.68-.56-1.78-.24-2.71-.24-.26,0-.55-.47-.8-.41-.6,.12-1.25,.64-2.09,.8-.66,.13-1.48-.22-2.27-.07-.68,.13-1.4,.29-2.17,.43-.69,.13-1.44,.1-2.2,.23-.7,.12-1.33,.83-2.08,.95-.71,.12-1.46,.08-2.21,.2-.71,.12-1.4,.49-2.15,.6-.72,.11-1.5-.15-2.25-.04-.72,.11-1.43,.35-2.17,.46-.72,.1-1.46,.18-2.2,.29-.72,.1-1.49-.05-2.23,.05-.72,.1-1.45,.22-2.19,.31-.73,.09-1.39,.75-2.13,.83-.73,.09-1.47,.17-2.2,.25-.73,.08-1.53-.46-2.27-.38-.73,.08-1.43,.48-2.17,.55-.73,.07-1.51-.33-2.25-.27-.73,.06-1.43,.62-2.17,.68-.74,.06-1.5-.22-2.23-.17-.74,.05-1.44,.63-2.18,.67-.74,.04-1.49-.1-2.22-.06-.74,.04-1.47,.12-2.21,.15-.74,.03-1.49-.45-2.23-.43-.74,.02-1.47,.09-2.21,.1-.74,.01-1.48,.18-2.21,.18-.77,0-1.52-.13-2.27-.14-.77-.01-1.54,.46-2.29,.43-.77-.03-1.53-.13-2.27-.17-.77-.04-1.5-.47-2.24-.53-.77-.06-1.53-.04-2.26-.11-.77-.08-1.52-.16-2.25-.25-.75-.09-1.53,.09-2.25-.02-.75-.12-1.51-.1-2.23-.24-.74-.14-1.35-.84-2.06-1-.74-.17-1.46-.31-2.16-.49-.73-.19-1.45-.34-2.14-.56-.72-.22-1.59,.04-2.28-.21-.71-.26-1.14-1.19-1.81-1.47-.69-.29-1.5-.29-2.15-.61-.67-.33-1.31-.71-1.94-1.08-.65-.37-1.46-.49-2.07-.89-.62-.41-1.01-1.15-1.6-1.6-.7-.53-1.59-1.04-2.46-1.04-1.09,0-2.29,.61-3.02,1.41-.68,.75-.75,.68-1.43,1.43-.68,.75-.57,.84-1.25,1.59-.68,.75-.59,.83-1.26,1.57-.68,.74-.52,.89-1.19,1.63-.39,.43-.62,.87-.79,1.4-.17,.53-.2,1.03-.13,1.6,.08,.57,.38,.94,.69,1.41Z"/><path d="M409.65,250.49c-.46-.94-.83-.75-1.29-1.69-.46-.93-.19-1.06-.65-2-.46-.93-.52-.9-.98-1.84-.32-.66-.81-1.28-1.41-1.66-.61-.38-1.37-.49-2.11-.49-.49,0-1,.02-1.46,.2-.67,.27-1.25,.78-1.93,1.04-.68,.26-1.55,0-2.23,.26-.68,.26-1.26,.78-1.94,1.03-.68,.25-1.32,.63-2.01,.87-.69,.24-1.34,.56-2.04,.8-.69,.23-1.35,.56-2.04,.79-.69,.23-1.37,.51-2.06,.73-.69,.22-1.49,.12-2.18,.33-.69,.21-1.3,.74-2,.94-.7,.21-1.57-.19-2.27,0-.7,.2-1.41,.34-2.11,.53-.7,.19-1.26,.91-1.96,1.1-.7,.19-1.51-.03-2.22,.15-.7,.18-1.27,.94-1.97,1.12-.71,.17-1.57-.3-2.28-.14-.71,.17-1.41,.35-2.12,.51-.71,.16-1.38,.51-2.09,.66-.71,.15-1.4,.4-2.12,.54-.71,.15-1.4,.42-2.11,.56-.71,.14-1.51-.14-2.22,0-.72,.13-1.37,.57-2.09,.7-.72,.13-1.42,.35-2.13,.47-.72,.12-1.47,0-2.19,.11-.72,.11-1.48-.09-2.2,.01-.72,.1-1.43,.28-2.15,.37-.72,.1-1.4,.51-2.12,.59-.72,.09-1.46,.03-2.18,.11-.72,.08-1.39,.67-2.12,.74-.73,.07-1.48-.16-2.2-.09-.73,.07-1.47-.06-2.19,0-.73,.06-1.46,.04-2.18,.09-.73,.05-1.45,.21-2.17,.25-.73,.04-1.45,.24-2.17,.27-.73,.03-1.47-.42-2.2-.4-.73,.02-1.44,.71-2.17,.73-.73,.01-1.46-.37-2.19-.37s-1.43-.15-2.13-.16c-.72-.01-1.42-.18-2.13-.2-.72-.02-1.43,.14-2.13,.11-.72-.03-1.41-.21-2.12-.26-.71-.04-1.43,.14-2.14,.08-.71-.05-1.46,.3-2.16,.24-.71-.07-1.42-.17-2.12-.25-.71-.08-1.39-.43-2.09-.52-.71-.09-1.4-.31-2.09-.42-.71-.11-1.4-.24-2.1-.36-.71-.12-1.45,.03-2.15-.11-.7-.14-1.45-.06-2.14-.21-.7-.15-1.25-.92-1.94-1.09-.7-.17-1.41-.23-2.09-.41-.69-.19-1.36-.42-2.03-.62-.73-.22-1.51-.24-2.21-.47-.73-.24-1.49-.35-2.18-.6-.72-.26-1.4-.6-2.08-.87-.71-.29-1.29-.83-1.96-1.14-.7-.32-1.58-.23-2.23-.56-.68-.35-1.1-1.17-1.73-1.54-.66-.39-1.47-.51-2.08-.91-.64-.43-1.35-.75-1.93-1.2-.61-.47-.95-1.24-1.49-1.73-.56-.52-1.16-.98-1.65-1.53-.51-.57-1.03-1.12-1.46-1.72-.45-.62-.95-1.21-1.31-1.85-.37-.66-.21-1.56-.48-2.25-.28-.7-.86-1.27-1.05-2-.19-.73-.42-1.45-.51-2.18-.09-.74-.33-1.5-.33-2.24,0-.75,.32-1.5,.4-2.23,.08-.74,.02-1.52,.18-2.25,.16-.73,.32-1.48,.54-2.19,.23-.71,.57-1.4,.86-2.08,.29-.69,1.04-1.16,1.38-1.82,.34-.67,.65-1.33,1.03-1.96,.4-.64,.33-1.59,.76-2.18,.44-.62,.93-1.22,1.4-1.77,.49-.59,1.38-.8,1.88-1.31,.48-.49,.42-1.28,.58-1.92,.16-.65,.43-1.27,.25-1.92-.17-.63-.54-1.19-1.03-1.68-.74-.75-.94-.55-1.67-1.3-.74-.75-.24-1.24-.98-1.98-.74-.75-.8-.68-1.54-1.43-.73-.74-.96-.52-1.69-1.26-.74-.75-1.7-1.21-2.75-1.21s-2.07,.52-2.79,1.31c-.5,.54-.97,1.1-1.44,1.64-.48,.56-.75,1.27-1.2,1.84-.46,.57-1.42,.76-1.84,1.33-.44,.59-.62,1.36-1.02,1.96-.41,.61-1.09,1.05-1.47,1.66-.39,.63-.22,1.57-.57,2.2-.36,.64-.86,1.19-1.18,1.84-.33,.66-.66,1.3-.94,1.96-.29,.68-.7,1.3-.95,1.97-.25,.69-.69,1.32-.9,2.01-.21,.7-.11,1.49-.28,2.19-.17,.71,0,1.48-.13,2.19-.12,.72-.55,1.39-.62,2.11-.07,.73,.23,1.47,.21,2.19-.02,.73-.54,1.46-.51,2.18,.03,.73-.04,1.48,.05,2.21,.09,.72,.47,1.41,.61,2.13,.14,.71,.53,1.37,.72,2.07,.19,.7,.4,1.38,.64,2.07,.24,.68,.25,1.46,.54,2.13,.29,.66,.5,1.38,.84,2.03,.33,.64,1.22,.97,1.6,1.6,.37,.62,.56,1.35,.98,1.95,.41,.59,.96,1.07,1.42,1.65,.44,.57,.7,1.29,1.19,1.84,.47,.54,.89,1.13,1.41,1.65,.5,.51,.85,1.21,1.39,1.7,.53,.48,1.31,.69,1.88,1.15,.55,.45,1.14,.87,1.73,1.3,.58,.42,1.25,.72,1.85,1.13,.59,.4,1.01,1.09,1.63,1.48,.61,.37,1.17,.86,1.81,1.22,.62,.35,1.56,.13,2.21,.47,.64,.33,1.15,.91,1.81,1.23,.49,.23,1.06,.28,1.61,.41,.32,.17,.65,.33,.99,.48,.43,.36,.8,.85,1.3,1.05,.66,.27,1.3,.64,1.99,.9,.67,.25,1.38,.42,2.08,.66,.68,.23,1.53-.05,2.23,.17,.68,.22,1.33,.54,2.03,.75,.69,.2,1.34,.54,2.05,.73,.69,.19,1.39,.39,2.09,.57,.7,.17,1.44,.18,2.15,.34,.7,.16,1.34,.61,2.05,.76,.7,.15,1.37,.53,2.08,.67,.71,.14,1.53-.35,2.25-.22,.71,.12,1.43,.13,2.15,.25,.71,.11,1.35,.68,2.08,.78,.71,.1,1.43,.22,2.15,.32,.71,.09,1.44,.12,2.16,.2,.71,.08,1.45,0,2.18,.06,.72,.07,1.45-.04,2.17,.03,.72,.06,1.42,.3,2.15,.35,.72,.05,1.42,.46,2.14,.5,.72,.04,1.46-.32,2.19-.29,.72,.03,1.43,.35,2.16,.37,.72,.02,1.44,.18,2.17,.19,.72,.02,1.45-.54,2.18-.53,.72,0,1.44,.43,2.17,.43,0,0-.04,.04,.03,.03,.76,0,1.51-.02,2.28-.03,.76,0,1.52-.51,2.29-.53,.76-.02,1.54,.38,2.31,.36,.76-.03,1.53-.07,2.3-.11,.77-.03,1.53-.17,2.3-.22,.77-.04,1.55,.17,2.32,.12,.74-.05,1.46-.32,2.19-.37,.74-.06,1.5,.18,2.23,.12,.74-.06,1.42-.74,2.15-.81,.74-.07,1.51,.19,2.23,.12,.74-.08,1.43-.5,2.16-.58,.74-.08,1.53,.35,2.25,.26,.74-.09,1.42-.53,2.15-.63,.74-.1,1.47-.14,2.2-.24,.74-.1,1.51,.07,2.23-.04,.74-.11,1.44-.38,2.16-.49,.73-.12,1.48-.12,2.2-.24,.73-.13,1.45-.3,2.17-.44,.73-.13,1.38-.65,2.1-.79,.73-.14,1.52,.06,2.23-.09,.73-.15,1.48-.17,2.19-.32,.73-.16,1.45-.29,2.16-.45,.73-.16,1.35-.74,2.06-.91,.73-.17,1.54,.06,2.25-.11,.73-.18,1.36-.68,2.06-.86,.73-.19,1.38-.6,2.07-.79,.72-.2,1.43-.4,2.12-.6,.72-.2,1.6,.18,2.29-.02,.72-.21,1.43-.44,2.11-.65,.72-.22,1.38-.6,2.06-.81,.72-.23,1.44-.39,2.12-.62,.72-.24,1.47-.35,2.13-.59,.72-.25,1.37-.63,2.03-.87,.73-.27,1.28-.9,1.93-1.15,.74-.28,1.65,.03,2.29-.22,.76-.3,1.17-1.22,1.78-1.48,.99-.42,1.64-1,2.02-2.01,.37-1,.35-1.94-.12-2.9-.46-.94-.07-1.13-.53-2.06Z"/><path d="M661.18,222.77c.05-.73-.22-1.46-.21-2.19,.02-.73,.02-1.44,0-2.17-.02-.73,.42-1.48,.35-2.21-.06-.73-.18-1.45-.28-2.18-.1-.72-.34-1.42-.49-2.14-.14-.72-.24-1.44-.42-2.15-.18-.71-.11-1.5-.32-2.19-.22-.7-1.04-1.19-1.29-1.87-.25-.68-.59-1.31-.88-1.99-.29-.67-.02-1.59-.35-2.25-.32-.65-.85-1.21-1.21-1.85-.36-.63-.78-1.23-1.17-1.85-.39-.61-1.09-1.01-1.51-1.61-.42-.59-.39-1.52-.85-2.1-.44-.56-1.17-.91-1.67-1.48-.47-.54-.99-1.05-1.51-1.6-.5-.52-.66-1.41-1.21-1.93-.52-.49-1.19-.88-1.76-1.37-.55-.47-1.22-.81-1.82-1.27-.57-.44-1.03-1.06-1.65-1.5-.59-.42-1.39-.54-2.02-.95-.61-.39-1.21-.81-1.86-1.19-.62-.37-1.09-1.06-1.75-1.41-.64-.34-1.37-.55-2.04-.87-.65-.31-1.43-.39-2.12-.69-.66-.29-1.38-.46-2.08-.74-.67-.26-1.41-.38-2.11-.62-.68-.24-1.21-.98-1.93-1.2-.69-.22-1.53,.03-2.25-.17-.7-.19-1.34-.62-2.07-.8-.71-.17-1.38-.56-2.11-.71-.71-.15-1.43-.36-2.16-.49-.71-.13-1.45-.25-2.19-.37-.72-.11-1.46-.21-2.2-.31-.72-.09-1.47-.11-2.21-.18-.72-.08-1.49,.28-2.24,.22-.72-.06-1.44-.36-2.18-.41-.73-.04-1.48,.27-2.22,.25-.73-.03-1.45-.21-2.2-.22-.73-.01-1.46-.03-2.21-.03s-1.47-.41-2.2-.4c-.73,.01-1.46,.4-2.19,.42-.73,.02-1.46,.11-2.19,.14-.73,.03-1.48-.19-2.21-.14-.73,.05-1.47-.04-2.21,.02-.73,.06-1.45,.25-2.18,.32-.73,.07-1.42,.53-2.15,.61-.73,.08-1.45,.18-2.18,.27-.73,.09-1.46,.1-2.19,.2-.73,.1-1.44,.29-2.16,.4-.72,.11-1.53-.29-2.26-.17-.72,.12-1.44,.27-2.17,.4-.72,.13-1.39,.56-2.11,.7-.72,.14-1.51-.06-2.23,.09-.72,.15-1.42,.39-2.13,.56-.71,.16-1.44,.28-2.16,.45-.71,.17-1.42,.36-2.14,.54-.71,.18-1.38,.52-2.09,.71-.54,.14-1.09,.72-1.85,.97-.6,.2-1.42-.05-2.12,.19-.62,.22-1.28,.46-1.95,.7-.64,.24-1.36,.28-2.01,.53-.65,.24-1.14,.9-1.78,1.14-.66,.25-1.34,.41-1.96,.65-.68,.27-1.39,.57-1.98,.8,.51-.5,1.02-1.08,1.48-1.6,.48-.53,1.27-.79,1.71-1.33,.46-.56,.74-1.26,1.14-1.81,.43-.59,.58-1.35,.95-1.92,.41-.62,.6-1.32,.93-1.89,.38-.67,.72-1.26,.99-1.83,.31-.66,.97-1.15,1.26-1.82,.29-.67,.25-1.47,.52-2.14,.27-.68,.94-1.19,1.19-1.87,.24-.66,.07-1.46,.27-2.13,0-.03,.02-.05,.03-.07,0-.02,.01-.05,.02-.08,.25-.66,.82-1.2,1.03-1.86,.22-.7,0-1.52,.2-2.21,.09-.31,.24-.59,.4-.88,.28-.07,.56-.13,.84-.14,.74-.01,1.49,.28,2.23,.27,.74-.02,1.48-.24,2.21-.26,.74-.02,1.48-.03,2.22-.06,.74-.03,1.48-.14,2.22-.17,.74-.03,1.51,.41,2.24,.37,.74-.04,1.47-.37,2.2-.41,.74-.04,1.49,.02,2.23-.03,.75-.05,1.47-.37,2.2-.42,.75-.05,1.53,.43,2.26,.37,.75-.06,1.45-.51,2.18-.57,.75-.06,1.49-.02,2.22-.09,.75-.07,1.46-.39,2.19-.46,.75-.07,1.54,.36,2.26,.28,.75-.08,1.47-.35,2.19-.43,.75-.08,1.5-.02,2.23-.11,.75-.09,1.47-.31,2.19-.4,.75-.09,1.44-.54,2.16-.63,.75-.1,1.55,.29,2.26,.19,.76-.1,1.44-.57,2.15-.66,.76-.11,1.52-.05,2.22-.15,.77-.11,1.55,.05,2.24-.05,.78-.12,1.45-.68,2.12-.79,.81-.13,1.6,.15,2.25,.04,.89-.15,1.55-.9,2.03-1.59,.48-.69,.77-1.53,.6-2.42-.18-.96-.57-.88-.75-1.84-.18-.96,.51-1.09,.33-2.04-.18-.96-.34-.94-.58-1.88-.24-.95-.47-.9-.65-1.86-.17-.89-.7-1.36-1.39-1.83-.69-.47-1.36-.94-2.25-.76-.67,.14-1.43,.09-2.22,.25-.69,.13-1.4,.36-2.17,.5-.7,.13-1.43,.27-2.19,.41-.71,.13-1.37,.65-2.13,.79-.71,.12-1.5-.04-2.25,.09-.71,.12-1.42,.41-2.17,.53-.72,.12-1.45,.26-2.2,.37-.72,.11-1.51-.14-2.26-.03-.72,.11-1.48,.08-2.22,.19-.73,.11-1.46,.23-2.2,.34-.73,.1-1.44,.38-2.19,.47-.73,.1-1.43,.49-2.17,.58-.73,.09-1.53-.33-2.27-.24-.73,.09-1.45,.34-2.2,.42-.74,.08-1.48,.13-2.22,.21-.74,.08-1.44,.51-2.19,.58-.74,.07-1.47,.22-2.22,.28-.74,.06-1.5-.06-2.24,0-.74,.06-1.52-.35-2.26-.3s-1.46,.56-2.2,.6c-.63,.04-1.27-.16-1.9-.21,.17-.37,.34-.74,.39-1.11,.1-.73-.15-1.5-.07-2.19,.09-.74,.14-1.46,.21-2.16,.08-.75-.07-1.48-.01-2.18,.06-.76,.62-1.44,.66-2.13,.05-.77-.43-1.52-.4-2.19,.03-.81,.2-1.53,.21-2.16,.02-1.02-.06-2.12-.77-2.84-.71-.73-1.82-.78-2.9-.78-1.05,.01-1.05,.11-2.1,.13-1.05,.02-1.06-.36-2.11-.35-1.05,.02-1.06-.22-2.11-.2-1.05,.02-1.05,.31-2.1,.33-1.04,.02-2.07,.42-2.77,1.18-.7,.76-.95,1.8-.88,2.83,.04,.63,.03,1.37,.05,2.2,.02,.67,.4,1.42,.39,2.21,0,.69-.38,1.43-.42,2.21-.03,.7,.15,1.46,.09,2.22-.05,.71-.25,1.44-.33,2.2-.07,.71-.18,1.44-.28,2.2-.03,.2-.08,.4-.15,.59-.18-.02-.36-.04-.54-.05-.75-.04-1.49-.08-2.22-.13-.75-.06-1.49-.08-2.22-.15-.75-.07-1.55,.37-2.27,.28-.76-.1-1.51-.22-2.24-.33-.76-.12-1.5-.29-2.22-.42-.76-.14-1.48-.37-2.2-.53-.75-.17-1.43-.57-2.14-.76-.75-.2-1.44-.47-2.14-.69-.74-.23-1.37-.66-2.06-.91-.73-.27-1.56-.18-2.23-.46-.71-.3-1.51-.4-2.16-.72-.7-.34-1.09-1.2-1.72-1.56-.67-.38-1.5-.46-2.1-.86-.65-.43-1.27-.85-1.85-1.29-.67-.51-1.46-1.01-2.25-.94-.79,.06-1.79,.4-2.36,1.03-.68,.74-.34,1.05-1.02,1.79-.68,.75-.84,.6-1.52,1.34-.68,.75-.68,.74-1.36,1.49-.68,.75-.81,.63-1.49,1.37-.44,.49-.72,1.24-.81,1.83-.1,.62-.07,1.43,.19,2,.25,.55,1.1,.67,1.66,1.03,.55,.35,1.18,.67,1.88,1.06,.58,.33,.89,1.29,1.59,1.64,.61,.3,1.51,.11,2.2,.43,.63,.28,1.1,1.02,1.81,1.3,.64,.26,1.32,.55,2.03,.81,.66,.24,1.53-.05,2.24,.19,.67,.22,1.38,.34,2.1,.55,.67,.2,1.2,.98,1.92,1.18,.68,.18,1.47,.03,2.2,.2,.69,.17,1.41,.25,2.13,.4,.69,.15,1.33,.64,2.05,.79,.7,.14,1.5-.22,2.23-.1,.7,.12,1.32,.82,2.05,.93,.7,.11,1.49-.25,2.22-.15,.71,.1,1.36,.73,2.09,.81,.71,.08,1.46-.14,2.2-.06,.71,.07,1.42,.33,2.15,.39,.35,.03,.7-.07,1.07-.18-.22,.61-.44,1.22-.7,1.84-.28,.68-.52,1.38-.84,2.07-.3,.67-.73,1.29-1.07,1.96-.33,.66-.68,1.31-1.03,1.97-.35,.65-.5,1.41-.87,2.07-.36,.64-.55,1.4-.94,2.04-.38,.63-1.08,1.08-1.48,1.72-.4,.63-.92,1.17-1.33,1.79-.41,.62-.92,1.16-1.35,1.78-.42,.61-.82,1.23-1.26,1.83-.44,.6-.63,1.39-1.08,1.98-.45,.59-.69,1.35-1.15,1.94-.46,.58-1.17,.97-1.64,1.54-.48,.57-.92,1.17-1.41,1.73-.49,.56-1.16,.96-1.66,1.51-.5,.55-.65,1.43-1.16,1.97-.52,.54-.98,1.14-1.51,1.66-.53,.53-1.31,.8-1.85,1.31-.55,.51-1.15,.96-1.7,1.45-.56,.5-1.31,.76-1.87,1.23-.58,.48-.92,1.24-1.49,1.69-.6,.46-1.01,1.17-1.6,1.6-.62,.44-1.39,.64-2.01,1.03-.25,.16-.89,0-1.31,.28-.87,.57-1.27,1.76-1.46,2.78-.19,1.02,.05,2.07,.66,2.91,.69,.95,.44,1.13,1.13,2.08,.69,.95,.75,.9,1.44,1.85,.69,.95,1.11,.64,1.8,1.58,.69,.95,.58,1.02,1.27,1.97,.35,.48,.68,1,1.21,1.26,.52,.26,1.13,.08,1.73,.08,.84,0,1.74,.14,2.4-.38,.38-.3,.23-.5,.61-.79,.48-.37,.94-1.01,1.65-1.52,.54-.39,1.53-.28,2.2-.74,.57-.39,1.21-.76,1.87-1.2,.59-.39,.96-1.18,1.62-1.6,.6-.38,1.27-.72,1.93-1.12,.61-.37,1.19-.87,1.85-1.25,.63-.36,1.23-.82,1.9-1.19,.63-.35,1.47-.37,2.14-.73,.64-.34,1.35-.58,2.03-.93,.65-.33,1.27-.75,1.95-1.08,.65-.32,1.19-.93,1.87-1.25,.66-.31,1.32-.67,2.01-.98,.67-.3,1.4-.49,2.09-.8,.67-.29,1.48-.3,2.17-.6,.68-.28,1.32-.67,2.02-.95,.68-.27,1.27-.81,1.98-1.08,.69-.26,1.39-.51,2.1-.77,.69-.25,1.55-.05,2.26-.3,.7-.24,1.31-.74,2.02-.97,.7-.23,1.37-.56,2.09-.79,.7-.22,1.48-.22,2.2-.43,.71-.21,1.36-.63,2.08-.84,.71-.2,1.37-.6,2.1-.79,.71-.19,1.44-.37,2.17-.55,.72-.18,1.46-.26,2.2-.43,.72-.17,1.56,.18,2.29,.03,.72-.16,1.36-.74,2.09-.88,.72-.15,1.52,.05,2.26-.08,.74-.14,1.42-.58,2.14-.7,.74-.13,1.49-.18,2.22-.3,.74-.12,1.42-.63,2.15-.74,.74-.11,1.52,.07,2.25-.03,.74-.1,1.48-.24,2.21-.33,.75-.09,1.53,.27,2.26,.19,.75-.07,1.47-.27,2.21-.33,.75-.06,1.47-.46,2.2-.51,.75-.05,1.52,.52,2.26,.49,.75-.03,1.48-.27,2.22-.28,.75-.02,1.49-.57,2.23-.57s1.47,.7,2.19,.72c.75,.02,1.5-.65,2.22-.62,.74,.04,1.44,.69,2.15,.75,.74,.06,1.46,.16,2.18,.23,.74,.08,1.51-.22,2.22-.13,.74,.1,1.47,.19,2.17,.31,.74,.12,1.43,.41,2.13,.56,.73,.15,1.54-.08,2.24,.09,.73,.18,1.37,.65,2.05,.86,.72,.21,1.27,.85,1.95,1.09,.71,.24,1.46,.29,2.12,.56,.69,.28,1.41,.45,2.06,.76,.68,.32,1.18,.93,1.8,1.27,.66,.36,1.28,.71,1.88,1.09,.63,.4,1.49,.43,2.07,.85,.61,.44,1.25,.83,1.79,1.29,.57,.48,.72,1.4,1.23,1.9,.53,.53,1.02,1.03,1.49,1.57,.49,.57,1.12,.98,1.54,1.55,.44,.6,.77,1.25,1.15,1.86,.39,.64,.69,1.29,1.02,1.92,.34,.67,.54,1.36,.81,2.01,.29,.7,1.19,1.14,1.41,1.81,.24,.72-.15,1.6,.02,2.28,.19,.75,.93,1.34,1.05,2.02,.13,.78-.45,1.6-.39,2.25,.07,.72,.21,1.41,.22,2.12,0,.72-.14,1.41-.19,2.13-.05,.72,.42,1.48,.31,2.2-.11,.71-.65,1.33-.81,2.04-.16,.7-.24,1.41-.45,2.1-.21,.68,0,1.52-.26,2.2-.26,.67-.48,1.38-.79,2.04-.3,.65-.73,1.26-1.08,1.9-.34,.63-.93,1.13-1.31,1.74-.38,.61-.98,1.07-1.39,1.66-.41,.58-.69,1.26-1.14,1.83-.44,.56-.83,1.17-1.31,1.72-.47,.54-1.26,.78-1.76,1.3-.5,.51-.82,1.2-1.35,1.69-.52,.49-1.02,1.01-1.57,1.48-.54,.47-1.14,.87-1.7,1.32-.56,.44-1.1,.91-1.69,1.34-.58,.42-1.18,.81-1.79,1.21-.59,.4-.96,1.17-1.58,1.55-.61,.38-1.52,.26-2.15,.62-.62,.35-.98,1.21-1.62,1.54-.63,.33-1.57,.08-2.22,.39-.64,.31-1.29,.6-1.96,.89-.68,.3-1.37,.59-2.06,.87-.69,.28-1.25,.89-1.96,1.15-.7,.26-1.35,.69-2.06,.93-.71,.24-1.49,.25-2.21,.47-.71,.22-1.51,.16-2.23,.36-.72,.2-1.44,.4-2.17,.58-.73,.17-1.49,.17-2.22,.32-.73,.15-1.4,.62-2.14,.75-.73,.13-1.5,.1-2.24,.22-.74,.12-1.43,.53-2.18,.63-.74,.1-1.48,.27-2.23,.35-.74,.08-1.49,.24-2.24,.3-.75,.06-1.5,.12-2.25,.16-.75,.04-1.51-.19-2.26-.17-.75,.02-1.5,.19-2.25,.19-1.04,0-2.09,.12-2.8,.88-.71,.75-.76,1.8-.71,2.84,.05,1.08-.42,1.11-.36,2.19,.05,1.08,.38,1.07,.44,2.15,.05,1.08,.05,1.08,.1,2.16,.05,1.08,.33,1.07,.38,2.15,.03,.66,0,1.21,.33,1.73,.34,.54,.77,.89,1.33,1.2,.54,.3,1.06,1.02,1.72,1.02v-.26c.11,0,.25,.15,.37,.15,.67-.06,1.4-.36,2.21-.45,.7-.07,1.43-.28,2.22-.38,.71-.09,1.42-.42,2.2-.52,.72-.1,1.51,.14,2.28,.02,.72-.11,1.48-.13,2.24-.26,.72-.12,1.4-.61,2.15-.75,.72-.13,1.54,.15,2.29,0,.73-.15,1.45-.38,2.19-.54,.73-.16,1.47-.29,2.21-.46,.72-.17,1.34-.8,2.07-.99,.72-.19,1.46-.3,2.19-.5,.72-.2,1.48-.25,2.2-.47,.72-.22,1.55-.08,2.26-.32,.71-.23,1.28-.88,1.99-1.12,.71-.25,1.37-.61,2.06-.87,.7-.27,1.6-.02,2.29-.3,.69-.29,1.38-.59,2.06-.89,.68-.3,1.18-1.01,1.85-1.33,.68-.32,1.29-.75,1.95-1.09,.67-.34,1.28-.75,1.94-1.11,.66-.36,1.61-.19,2.25-.57,.65-.38,1.09-1.1,1.72-1.49,.64-.4,1.51-.43,2.12-.84,.62-.42,1.12-1.02,1.73-1.45,.61-.43,1.31-.75,1.91-1.2,.6-.45,.93-1.24,1.51-1.7,.58-.47,1.07-1.04,1.63-1.53,.57-.49,1.23-.86,1.77-1.36,.55-.51,1.1-1.01,1.63-1.54,.53-.53,1.07-1.04,1.58-1.59,.51-.55,.95-1.15,1.44-1.72,.49-.57,.88-1.21,1.34-1.79,.47-.59,.83-1.23,1.27-1.83,.44-.61,1.05-1.08,1.46-1.7,.42-.62,.85-1.23,1.23-1.87,.39-.64,.52-1.42,.87-2.07,.36-.66,.86-1.23,1.19-1.89,.32-.67,.55-1.38,.83-2.07,.29-.69,.78-1.29,1.04-1.99,.25-.7,.45-1.43,.66-2.14,.22-.72,.73-1.36,.9-2.08,.17-.71-.12-1.53,0-2.24,.13-.72,.58-1.39,.67-2.11,.09-.73-.1-1.48-.04-2.21Z"/></g><g><path d="M172.64,25.19c-3.64,2.7-5.7,4.1-8.17,5.62,1.31,1.68,1.39,1.76,4.91,5.46,3.4-2.37,5.88-4.41,8.18-6.69l2.48,2.19c-2.96,2.69-5.78,4.94-8.41,6.67,4.37,3.9,6.27,5.3,10.55,7.8l-2.22,3.08c-3.91-1.14-7.83-1-12.22,.36-4.91,1.51-7.54,4.36-6.68,7.15,1.04,3.39,4.82,3.91,12.21,1.63,1.96-.6,3.12-1.06,5.67-2.15-.2,1.18-.16,2.6,.07,3.34l.11,.37c-1.73,.63-2.49,.92-4.04,1.4-4.7,1.45-7.66,1.95-10.27,1.74-3.59-.27-6.39-2.2-7.26-5.04-1.42-4.6,2.26-8.84,9.54-11.09,3.1-.95,5.11-1.22,8.62-1.03q-3.06-2.21-6.9-5.71c-3.14,1.93-6.27,3.51-8.44,4.18-3.1,.95-5.18,.27-5.85-1.91-.23-.74-.24-1.51,.1-2.98l3.17,.19c-.19,.67-.26,1-.16,1.32,.2,.65,.79,.72,1.87,.39,1.81-.56,4.22-1.71,6.99-3.38l-1.53-1.67c-2.03-2.18-2.46-2.65-3.44-3.83-3.28,1.83-5.75,2.99-12.8,6.19l-1.6-2.82c3.4-1.25,9.5-4.05,12.05-5.5,.33-.2,.38-.22,.53-.31q-.22-.34-2.16-2.8c-.55-.69-.58-.79-1.46-1.99q-.44-.68-.99-1.38l3.86-1.6c.5-.21,.85,0,.96,.37,.07,.23,.05,.34-.5,1.12,1.51,2.13,1.83,2.64,3.27,4.54,2.91-1.76,4.37-2.88,7.69-5.53l2.29,2.3Z"/><path d="M217.71,8.75c.6-.02,1.02,.14,1.09,.48s-.11,.57-.78,1.05c-.21,7.78-.32,17.78-.27,23.82,2.16-.23,3.66-.43,5.52-.8l1.33-.26-.18,3.51c-2.94,.49-4.06,.66-6.5,.85,.08,1.52,.19,2.34,.36,3.2,.89,4.49,3.48,6.11,8.3,5.14,4.88-.97,7.06-4.13,6.12-8.86-.78-3.91-3.17-6.76-9.09-11.04,.86-.67,1.41-1.22,2.16-2.17,7.03,4.55,9.56,7.57,10.55,12.54,1.33,6.68-1.9,11.2-9.06,12.62-6.95,1.38-11.36-1.11-12.54-7.03-.27-1.34-.25-1.54-.4-4.24-1.75,.05-3.97-.3-5.79-.83-2-.64-3.1-1.71-3.42-3.34-.29-1.48,.03-2.63,1.27-4.12l2.54,1.13c-.55,.85-.67,1.33-.57,1.85,.26,1.29,2.56,2.07,5.8,2.02-.02-2.58,0-5.26,0-9.13-4.95-.21-7.28-.83-10.36-2.75l1.61-2.7c2.32,1.42,4.7,1.99,8.81,2.17,.16-6.93,.05-10.53-.35-12.83l3.86-.27Z"/><path d="M262.4,29.39c1.25-3.84,1.68-6.57,2.52-15.56-.91,.14-2.63,.36-3.92,.49-2.8,.28-4.37,.29-7.33,.05l.12-3.14c2.8,.26,4.43,.24,8.62-.17,1.02-.1,1.61-.16,2.73-.37,.31-5.02,.33-8.15,.15-9.94l3.98,.09c.6,.04,1.06,.29,1.09,.62,.03,.34-.06,.45-1.14,1.14-.12,1.48-.5,6.46-.51,7.39,3.55-.89,6.58-2.12,10.08-4.09l1.9,2.7c-3.34,1.9-7.95,3.63-12.26,4.6q-.12,.94-.53,4.99c-.2,2.37-.35,3.56-.76,6.04,5.71-4.33,9.35-5.92,14.46-6.43,6.46-.64,10.81,2.1,11.31,7.14,.5,5.04-3.28,9.62-10.77,12.96-3.43,1.56-7.43,2.84-12.75,4.06-.78-1.78-.98-2.15-1.77-3.05,6.49-1.38,9.6-2.33,13.19-4,5.92-2.79,8.7-5.95,8.33-9.63-.34-3.39-3.18-5.16-7.7-4.71-4.09,.41-7.46,2.02-11.41,5.44-1.75,1.54-2.38,2.29-3.65,4.28l-4-.87Z"/><path d="M308.29,26.11c4.57,3.81,6.96,6.27,10.62,10.87l-3.55,2.6c-3.06-4.26-6.44-7.98-9.97-10.92l2.9-2.55Z"/><path d="M360.31,.64c.64,.09,1.01,.36,.98,.74-.02,.34-.2,.52-.93,.92-.32,2.47-2.39,23.3-2.47,24.47-.35,5.49,1.15,7.44,5.9,7.74,3.56,.22,6.84-.3,10.35-1.69,4.11-1.59,6.6-3.29,10.86-7.31q.88,1.57,2.2,2.97c-4.25,3.88-6.8,5.57-10.74,7.17-4.23,1.73-8.55,2.44-13.03,2.15-4.32-.27-6.94-1.56-8.3-4.03-.78-1.41-1.03-3.43-.83-6.59,.09-1.41,.34-3.73,.86-8.38,.43-4.21,.8-8.39,1.1-13.14,.14-2.19,.2-3.94,.14-5.65l3.91,.64Z"/><path d="M412.42,7.28c4.36,.45,12.89,.54,17.97,.28l.82-.31,2.59,2.98c.23,.28,.35,.55,.31,.79-.05,.34-.34,.39-.62,.44l-.68,.14c-8.55,6.51-10.53,7.96-16.37,11.95,4.9-1.18,7.22-1.35,10.53-.82,7.63,1.23,12.06,6.03,11.1,12.03-.55,3.46-2.6,6.33-5.9,8.12-3.42,1.86-7.61,2.37-13,1.51-6.94-1.12-10.46-3.75-9.87-7.4,.46-2.83,3.46-4.52,6.99-3.95,2.94,.47,5.49,2.26,6.91,4.71,.5,.97,.76,1.75,1.28,3.95,2.71-.2,4.03-.58,5.61-1.51,2.19-1.37,3.64-3.55,4.04-6.05,.71-4.42-2.45-7.93-7.89-8.81-4.48-.72-9.45,.21-14.79,2.75-1.48,.7-2.61,1.26-5.33,2.84l-2.23-3.17c7.27-4.01,7.64-4.24,10.03-5.88,.24-.16,5.45-3.95,15.53-11.45l-8.52,.21c-1.65,.03-6.9,.37-8.02,.49l-.48-3.82Zm3.46,28.25c-1.81-.29-3.2,.47-3.41,1.77-.3,1.87,2.08,3.44,6.29,4.12,.59,.09,.64,.1,1.88,.25-.58-3.89-1.99-5.69-4.76-6.14Z"/><path d="M472.42,16.98c.62,.21,.92,.54,.82,.92-.09,.33-.29,.48-1.08,.72-.79,2.36-6.86,22.39-7.16,23.52-1.4,5.32-.31,7.52,4.29,8.73,3.45,.91,6.77,1.03,10.48,.35,4.34-.77,7.11-1.95,12.07-5.07q.56,1.71,1.58,3.34c-4.92,2.98-7.75,4.14-11.93,4.95-4.48,.88-8.86,.73-13.2-.41-4.18-1.1-6.51-2.88-7.37-5.57-.49-1.54-.35-3.56,.46-6.62,.36-1.36,1.06-3.59,2.46-8.06,1.24-4.05,2.41-8.07,3.63-12.68,.56-2.12,.95-3.82,1.23-5.51l3.72,1.38Z"/><path d="M506.08,53.27c2.86,5.22,4.19,8.39,5.91,14l-4.26,1.13c-1.29-5.08-3.07-9.78-5.29-13.81l3.63-1.31Z"/></g></svg>