<svg xmlns="http://www.w3.org/2000/svg" width="100" height="100" viewBox="0 0 100 100">
  <g id="nav_recocochi" transform="translate(3893 13048)">
    <rect id="長方形_148" data-name="長方形 148" width="100" height="100" transform="translate(-3893 -13048)" fill="none"/>
    <path id="パス_988" data-name="パス 988" d="M37.215,288.8c-.18-.139-.314-.343-.5-.471s-.308-.366-.5-.488-.477-.1-.669-.215-.32-.366-.517-.477-.46-.1-.669-.2-.413-.2-.616-.291-.454-.1-.663-.18-.4-.244-.61-.32-.4-.262-.61-.331-.465-.041-.686-.1-.424-.186-.645-.238-.471.011-.7-.035-.418-.238-.639-.279-.453-.07-.68-.1-.459-.029-.686-.052-.465.07-.692.046-.442-.168-.669-.186-.453-.087-.68-.1-.459.145-.692.145-.453-.076-.686-.076-.459-.017-.686-.012-.459.006-.686.023-.453.1-.674.128-.453.047-.68.076-.465-.035-.692,0-.442.128-.669.169-.471-.023-.692.023-.448.11-.669.163-.448.1-.669.163-.4.279-.616.349-.459.058-.674.134-.471.052-.68.128-.331.343-.552.436c-.2.081-.471.023-.68.116s-.355.29-.558.39-.413.163-.616.267-.407.18-.6.29-.4.215-.587.326-.4.2-.593.32-.378.238-.57.366-.308.337-.494.471-.442.157-.622.29-.256.4-.43.541-.407.209-.576.355-.291.349-.453.5-.436.2-.587.366-.151.471-.291.639-.331.308-.459.488-.209.4-.32.587-.407.3-.5.494-.1.57-.174.779c-.006-.221-.064-.569-.047-.808.017-.221.012-.459.047-.7s.116-.448.169-.674.058-.459.116-.686.32-.384.39-.61.134-.436.209-.657.087-.453.169-.669.07-.465.151-.68.262-.389.349-.6.14-.442.233-.651.163-.436.256-.645.256-.4.349-.6.064-.494.163-.692c.1-.215.25-.4.355-.6.11-.221.2-.43.3-.622.122-.227.32-.378.419-.558a.939.939,0,0,0,.093-.692,1.023,1.023,0,0,0-.384-.616c-.32-.2-.372-.122-.692-.32s-.326-.192-.651-.389-.262-.3-.581-.5-.4-.081-.721-.279a1,1,0,0,0-.686-.215c-.233.046-.337.308-.471.517-.11.163-.308.308-.442.523-.11.18-.221.378-.343.593-.1.186-.18.407-.3.616-.1.192-.238.378-.349.587s-.326.337-.43.552c-.093.2-.18.413-.279.628s-.093.453-.186.669-.25.384-.337.6-.07.459-.151.674-.145.424-.221.645-.285.378-.36.6,0,.477-.07.7-.25.4-.314.622.017.477-.047.7-.256.4-.308.628.07.482.017.709-.134.436-.18.657-.093.442-.134.669-.029.453-.07.68-.1.442-.134.668-.058.448-.087.68-.023.453-.047.68-.209.436-.233.663.017.459,0,.686-.1.447-.11.68-.029.453-.035.686S1,298.5,1,298.732s.2.459.2.686-.192.453-.192.686.227.447.238.68-.122.459-.11.692.1.448.122.68-.087.465-.064.692.18.442.2.668.023.454.052.68.035.453.07.68.058.453.093.68-.052.471-.017.7.157.436.2.663.017.459.064.686.134.436.18.662.227.419.273.639.017.465.07.686.116.442.174.663a.927.927,0,0,0,.413.587.854.854,0,0,0,.7,0c.3-.081.331.041.622-.041s.262-.2.558-.279.331.052.628-.029.279-.133.576-.215.267-.192.564-.273c.2-.052.453,0,.6-.134s.11-.4.174-.587.267-.355.238-.558-.035-.4-.052-.639c-.017-.2-.174-.4-.192-.628-.012-.2.1-.418.093-.645,0-.2-.1-.418-.1-.645,0-.209.093-.419.1-.639s-.035-.424-.017-.645.134-.413.157-.628-.047-.43-.023-.651.047-.424.081-.639.093-.442.14-.668-.023-.471.035-.7.192-.418.262-.639.1-.448.174-.663.238-.4.326-.61.122-.442.215-.651.227-.4.331-.6.209-.4.326-.6.3-.355.413-.547.2-.413.326-.6.192-.424.331-.6.32-.331.459-.512.326-.32.477-.494.221-.419.372-.581.448-.2.61-.36.209-.442.378-.593.424-.209.593-.36.308-.343.488-.482.413-.2.6-.337.262-.424.453-.546.39-.238.587-.36.465-.1.669-.215.349-.314.552-.419.483-.046.692-.139.349-.343.564-.43.4-.2.616-.273.442-.081.657-.146.419-.157.634-.215.436-.093.651-.145.459.023.68-.023.4-.267.622-.3.448-.023.669-.052.448.011.674-.012.436-.111.663-.128.448-.029.669-.035.448-.035.669-.035.442.122.663.133.453-.081.674-.064.43.168.651.2.436.07.657.1.436.081.651.128.436.087.651.139.43.1.645.163.465.012.674.081.43.134.639.215.4.215.6.308.39.221.587.32.36.262.558.372.43.139.622.256.343.285.535.407.331.3.512.425.418.174.593.314.32.308.488.453.29.337.447.488.314.308.465.465.308.314.454.482.384.256.523.425.244.372.372.552.349.3.471.482.07.482.186.668.343.314.448.506.244.378.343.575.134.43.221.634.058.453.14.657.349.343.419.552.11.43.174.645.139.424.192.639.134.43.175.645.064.442.093.663.087.442.111.663-.093.477-.07.7.035.465.047.692.011.465.017.692.116.465.116.692-.209.459-.221.686.192.477.174.7-.052.465-.076.692-.128.453-.163.68-.128.447-.174.669,0,.477-.058.7-.174.436-.238.651-.238.407-.314.622-.128.442-.209.657-.157.43-.25.639-.018.5-.122.7-.384.32-.494.523-.041.512-.157.709-.4.3-.523.488-.1.488-.238.674-.447.244-.587.43-.273.366-.419.546-.3.349-.447.517-.186.453-.343.622-.279.355-.442.512-.36.273-.529.418-.448.157-.628.3-.3.331-.482.465-.279.384-.465.506-.465.1-.657.215-.372.244-.564.355-.384.227-.581.331-.378.233-.582.331-.43.134-.634.227-.366.273-.576.36-.43.134-.639.209-.436.1-.651.174-.419.151-.634.221-.407.2-.622.267-.465-.017-.686.035-.4.238-.622.285-.453,0-.674.041-.43.116-.651.157-.442.076-.663.1-.448-.012-.674.011-.442.041-.669.058-.436.186-.657.2-.453-.122-.674-.116-.442.064-.669.064-.448.029-.669.023-.448.064-.674.058-.448,0-.674-.012-.442-.064-.669-.081-.442-.093-.663-.116a.887.887,0,0,0-.727.3.97.97,0,0,0-.355.715c.023.308.151.3.174.61s-.116.32-.093.634.186.3.209.61.023.314.041.622-.14.325-.116.634a1.406,1.406,0,0,0,.18.622,1.362,1.362,0,0,0,.494.413,1.326,1.326,0,0,0,.622.145c.227,0,.448.012.669,0s.442-.087.669-.1.448.012.669,0,.453.029.674.012.436-.168.657-.192.448-.035.669-.058.453.041.674.011.436-.122.657-.151.442-.064.663-.1.459.023.68-.017.413-.238.628-.285.459.023.68-.023.4-.267.616-.32.459-.006.674-.064.465-.006.674-.07.419-.174.628-.238.436-.1.645-.174.39-.244.6-.32.413-.168.622-.25.413-.174.616-.256.465-.046.669-.139.425-.157.622-.256.314-.372.512-.471.419-.157.616-.267.442-.122.634-.233.4-.2.593-.314.3-.355.488-.477.424-.168.6-.3.349-.279.529-.413.355-.268.535-.407.372-.244.547-.39.372-.25.541-.4.32-.314.482-.465.349-.279.512-.436.273-.36.43-.523.2-.424.349-.587.331-.3.471-.471.29-.337.43-.512.291-.337.424-.511.227-.384.355-.57.238-.372.36-.558.238-.372.355-.564.215-.39.325-.581.331-.326.436-.523.111-.442.209-.645.186-.4.273-.61.273-.366.355-.575.227-.39.3-.6.018-.465.081-.68.221-.4.285-.616-.046-.471.006-.692.331-.378.378-.6-.017-.459.023-.68,0-.453.029-.674.262-.413.291-.634.011-.447.035-.674.047-.442.064-.669-.041-.448-.029-.674-.052-.447-.052-.669.046-.442.046-.668.111-.448.1-.674-.192-.436-.2-.662.169-.459.151-.68-.11-.442-.128-.663.012-.453-.017-.669-.07-.442-.1-.657-.087-.436-.128-.657-.163-.418-.209-.634-.087-.436-.145-.651-.157-.418-.221-.628-.081-.442-.157-.651-.1-.436-.186-.639-.2-.4-.285-.6-.175-.413-.268-.61-.36-.314-.459-.511-.174-.407-.285-.6-.227-.378-.343-.569-.087-.477-.209-.657-.413-.25-.546-.43-.285-.337-.425-.512-.1-.488-.238-.657-.325-.308-.471-.477-.261-.366-.418-.523-.366-.262-.523-.419-.325-.3-.488-.453-.355-.267-.523-.413-.337-.285-.512-.425-.407-.192-.587-.331Z" transform="translate(-3866 -13302.732)" fill="#fff"/>
  </g>
</svg>
